# xmcd CD database file
#
# Track frame offsets:
#	150
#	95425
#	111712
#	225428
#	254752
#
# Disc length: 4439 seconds
#
# Revision: 0
# Processed by: cddbd v1.5.2PL0 Copyright (c) Steve Scherf et al.
# Submitted via: CDex 1.51
#
DISCID=41115505
DTITLE=Dick Sutphen - Zen Liberation (74 Min Course)
DYEAR=1900
DGENRE=New Age
TTITLE0=How To Be Very, Very Zen
TTITLE1=Altered-State Preparation
TTITLE2=Bodhisattva Traits Meditation
TTITLE3=Ten Zen Precepts and Six Pramitas
TTITLE4=Zen-Attitude Meditation
EXTD=
EXTT0=
EXTT1=
EXTT2=
EXTT3=
EXTT4=
PLAYORDER=
